<?xml version="1.0" encoding="UTF-8"?>
<svg id="Ebene_2" data-name="Ebene 2" xmlns="http://www.w3.org/2000/svg" viewBox="0 0 337.15 134.84">
  <defs>
    <style>
      .cls-1 {
        fill: #fff;
      }
    </style>
  </defs>
  <g id="Ebene_2-2" data-name="Ebene 2">
    <g>
      <g>
        <path class="cls-1" d="M2.23,55.53c1.36,0,2.52-.48,3.48-1.45.97-.97,1.47-2.13,1.53-3.49V6.73c0-1.25-.5-2.31-1.49-3.17-.99-.86-2.17-1.29-3.52-1.29h-.94l-.08-.78h15.9c1.62,0,3.38-.16,5.29-.47,1.91-.31,3.25-.63,4.03-.94v9.87h-.78v-1.41c0-1.25-.43-2.32-1.29-3.21-.86-.89-1.89-1.36-3.09-1.41h-8.93v24.2h14.88c1.04-.05,1.93-.44,2.66-1.17.73-.73,1.1-1.65,1.1-2.74v-1.1h.78v12.37h-.78v-1.17c0-1.04-.35-1.93-1.06-2.66-.71-.73-1.58-1.12-2.62-1.17h-14.96v23.42h16.68c3.86,0,6.81-.86,8.85-2.58,2.04-1.72,3.73-4.28,5.09-7.68h.78l-4.54,12.69H1.21v-.78h1.02Z"/>
        <path class="cls-1" d="M84.54,16.6c0,2.3-.47,4.44-1.41,6.42-1.72,3.71-4.75,6.29-9.08,7.75-1.51.52-2.82.78-3.92.78-3.24,0-6.03-.6-8.38-1.8v-.78c3.81.84,7.33.42,10.57-1.25,2.87-1.46,4.83-3.86,5.87-7.21.31-1.04.47-2.04.47-2.98v-1.72c-.11-3.65-1.07-6.57-2.9-8.73-1.83-2.17-4.39-3.25-7.67-3.25h-9.01v46.75c.05,1.36.56,2.52,1.53,3.49.97.97,2.13,1.45,3.48,1.45h1.02v.78h-17.15v-.78h1.02c1.36,0,2.52-.48,3.48-1.45.97-.97,1.47-2.13,1.53-3.49V6.81c-.16-1.3-.71-2.39-1.64-3.25-.94-.86-2.06-1.29-3.37-1.29h-.94l-.08-.78h20.44c5.01,0,8.95,1.34,11.83,4.03,2.87,2.69,4.31,6.38,4.31,11.08Z"/>
        <path class="cls-1" d="M93.78,55.53c1.36,0,2.52-.48,3.48-1.45.97-.97,1.47-2.13,1.53-3.49V7.13c-.05-1.36-.56-2.51-1.53-3.45-.97-.94-2.13-1.41-3.48-1.41h-1.02v-.78h17.15v.78h-1.02c-1.36,0-2.52.47-3.48,1.41-.97.94-1.48,2.09-1.53,3.45v43.47c0,1.36.5,2.52,1.49,3.49.99.97,2.17,1.45,3.52,1.45h1.02v.78h-17.15v-.78h1.02Z"/>
        <path class="cls-1" d="M125.46,49.5c-5.2-5.22-7.79-12.1-7.79-20.64s2.6-15.41,7.79-20.64c5.19-5.22,12.07-7.83,20.64-7.83,7,0,13.18,1.78,18.56,5.33l1.57,11.04h-.7c-1.15-4.49-3.47-7.95-6.97-10.38-3.5-2.43-7.65-3.64-12.45-3.64-6.84,0-12.31,2.38-16.41,7.13-4.1,4.75-6.15,11.04-6.15,18.87s2.02,14.14,6.07,18.91c4.05,4.78,9.38,7.24,16.02,7.4,5.85,0,10.73-1.59,14.65-4.78,4.23-3.45,6.79-9.06,7.68-16.84h.63l-.94,12.3c-4.75,7.78-12.09,11.67-22.01,11.67-8.25-.05-14.97-2.69-20.17-7.91Z"/>
        <path class="cls-1" d="M201.39,35.48c-2.72,3.55-4.07,7.39-4.07,11.51,0,4.91,2.06,8.72,6.19,11.43,2.4,1.62,5.13,2.43,8.18,2.43s5.7-.6,7.95-1.8c4.23-2.19,6.6-5.87,7.13-11.04.05-.36.08-.73.08-1.1,0-1.93-.54-4.02-1.61-6.27-1.07-2.24-2.81-4.31-5.21-6.19l-14.1-11.12c-3.08-2.4-4.62-5.51-4.62-9.32s1.23-7.04,3.68-9.67c2.45-2.64,5.77-3.95,9.95-3.95,2.09,0,4.36.26,6.81.78h3.13l.16,9.63h-.78c-.05-2.51-.95-4.48-2.7-5.91-1.75-1.44-3.94-2.15-6.58-2.15s-4.84.88-6.62,2.62c-1.78,1.75-2.66,3.99-2.66,6.74s1.15,5.03,3.45,6.85l14.49,11.43c5.74,4.54,8.62,10.02,8.62,16.45,0,4.8-1.91,8.93-5.72,12.37-3.29,2.98-7.68,4.46-13.16,4.46-3.34,0-6.32-.63-8.93-1.88-4.91-2.3-7.86-6.21-8.85-11.75-.16-.83-.24-1.89-.24-3.17s.36-3.03,1.1-5.25c.73-2.22,2.14-4.45,4.23-6.7l.71.55Z"/>
        <path class="cls-1" d="M240.78,55.53c1.36,0,2.52-.48,3.48-1.45.97-.97,1.47-2.13,1.53-3.49V6.73c0-1.25-.5-2.31-1.49-3.17-.99-.86-2.17-1.29-3.52-1.29h-.94l-.08-.78h22.95c1.62,0,3.38-.16,5.29-.47,1.91-.31,3.25-.63,4.03-.94v9.87h-.78v-1.41c0-1.25-.43-2.32-1.29-3.21-.86-.89-1.89-1.36-3.09-1.41h-15.98v24.2h13.24c1.04-.05,1.93-.44,2.66-1.17.73-.73,1.1-1.65,1.1-2.74v-1.1h.78v12.37h-.78v-1.17c0-1.04-.35-1.93-1.06-2.66-.7-.73-1.58-1.12-2.62-1.17h-13.31v23.42h11.2c3.86,0,6.81-.86,8.85-2.58s3.73-4.28,5.09-7.68h.78l-4.54,12.69h-32.5v-.78h1.02Z"/>
        <path class="cls-1" d="M326.38,8.46c0-1.25-.44-2.34-1.33-3.25-.89-.91-1.93-1.4-3.13-1.45h-14.88v46.91c.05,1.36.56,2.51,1.53,3.45.97.94,2.13,1.41,3.48,1.41h1.02v.78h-17.15v-.78h1.02c1.36,0,2.52-.47,3.48-1.41.97-.94,1.47-2.06,1.53-3.37V3.76h-14.88c-1.25.05-2.31.54-3.17,1.45-.86.91-1.29,2-1.29,3.25v1.33l-.78.08V0c.78.31,2.14.63,4.07.94,1.93.31,3.71.47,5.33.47h26.47c2.56,0,4.69-.2,6.38-.59,1.7-.39,2.73-.67,3.09-.82v9.87l-.78-.08v-1.33Z"/>
        <path class="cls-1" d="M30.94,99.59c-.94.99-2.01,1.72-3.21,2.19,5.12.73,9.01,2.54,11.67,5.44s3.99,6.44,3.99,10.61c0,5.06-2.04,9.16-6.11,12.3-4.07,3.13-9.42,4.7-16.05,4.7s-11.83-1.63-15.58-4.89c-3.76-3.26-5.64-7.87-5.64-13.82v-.94l.86-.16c1.04,7.78,4.28,12.82,9.71,15.12v-45.58c-.1-1.41-.64-2.57-1.61-3.48-.97-.91-2.13-1.37-3.48-1.37h-.94v-.78h13.16c4.91,0,8.84,1.12,11.79,3.37,2.95,2.25,4.42,5.18,4.42,8.81s-.99,6.46-2.98,8.5ZM15.66,81.42v50.12c1.72.26,3.71.39,5.95.39,5.01,0,8.91-1.34,11.71-4.03,2.79-2.69,4.19-6.17,4.19-10.46,0-2.3-.43-4.33-1.29-6.11-.86-1.77-1.95-3.16-3.25-4.15-3.45-2.66-8.3-3.99-14.57-3.99h-.08l-.08-.71h.08c2.66,0,4.95-.87,6.85-2.62,1.91-1.75,2.86-4.45,2.86-8.11,0-6.89-3.79-10.34-11.36-10.34h-1.02Z"/>
        <path class="cls-1" d="M104,79.7h-1.25c-1.1,0-2.05.35-2.86,1.06-.81.71-1.24,1.58-1.29,2.62v31.01c0,6.11-1.93,11.04-5.8,14.8-3.86,3.76-9.01,5.64-15.43,5.64s-11.63-1.87-15.62-5.6c-3.99-3.73-5.99-8.65-5.99-14.76v-30.86c0-1.57-.68-2.71-2.04-3.45-.63-.31-1.33-.47-2.11-.47h-1.25v-.78h15.9v.78h-1.25c-1.15,0-2.11.35-2.9,1.06-.78.71-1.2,1.61-1.25,2.7v29.92c0,5.69,1.53,10.29,4.58,13.78,3.05,3.5,7.14,5.25,12.26,5.25s9.27-1.66,12.45-4.97c3.18-3.31,4.78-7.66,4.78-13.04v-30.94c-.05-1.1-.47-2-1.25-2.7-.78-.7-1.75-1.06-2.9-1.06h-1.25v-.78h14.49v.78Z"/>
        <path class="cls-1" d="M113.64,132.96c1.36,0,2.52-.48,3.48-1.45.97-.97,1.47-2.13,1.53-3.49v-43.47c-.05-1.36-.56-2.51-1.53-3.45-.97-.94-2.13-1.41-3.48-1.41h-1.02v-.78h17.15v.78h-1.02c-1.36,0-2.52.47-3.48,1.41-.97.94-1.48,2.09-1.53,3.45v43.47c0,1.36.5,2.52,1.49,3.49.99.97,2.17,1.45,3.52,1.45h1.02v.78h-17.15v-.78h1.02Z"/>
        <path class="cls-1" d="M140.11,132.96c1.36,0,2.52-.48,3.48-1.45.97-.97,1.47-2.13,1.53-3.49v-43.39c-.05-1.36-.56-2.52-1.53-3.49-.97-.97-2.13-1.45-3.48-1.45h-1.02v-.78h17.15v.78h-1.02c-1.88,0-3.32.81-4.31,2.43-.47.78-.71,1.62-.71,2.51v46.68h11.2c3.86,0,6.81-.86,8.85-2.58s3.73-4.28,5.09-7.68h.78l-4.54,12.69h-32.5v-.78h1.02Z"/>
        <path class="cls-1" d="M228.8,86.48c5.19,5.04,7.79,11.66,7.79,19.85s-2.6,14.81-7.79,19.85c-5.2,5.04-11.97,7.56-20.32,7.56h-26.55v-.78h1.02c1.36,0,2.52-.48,3.48-1.45.97-.97,1.47-2.13,1.53-3.49v-43.86c0-1.25-.51-2.31-1.53-3.17-1.02-.86-2.18-1.29-3.48-1.29h-.94l-.08-.78h26.55c8.35,0,15.13,2.52,20.32,7.56ZM193.05,81.27v50.12h15.43c4.39,0,8.26-1.04,11.63-3.13,3.37-2.09,5.98-5.02,7.83-8.81,1.85-3.78,2.78-8.16,2.78-13.12,0-7.52-2.05-13.57-6.15-18.17-4.1-4.59-9.46-6.89-16.09-6.89h-15.43Z"/>
        <path class="cls-1" d="M244.58,132.96c1.36,0,2.52-.48,3.48-1.45.97-.97,1.47-2.13,1.53-3.49v-43.86c0-1.25-.5-2.31-1.49-3.17-.99-.86-2.17-1.29-3.52-1.29h-.94l-.08-.78h22.95c1.62,0,3.38-.16,5.29-.47,1.91-.31,3.25-.63,4.03-.94v9.87h-.78v-1.41c0-1.25-.43-2.32-1.29-3.21-.86-.89-1.89-1.36-3.09-1.41h-15.98v24.2h13.24c1.04-.05,1.93-.44,2.66-1.17.73-.73,1.1-1.65,1.1-2.74v-1.1h.78v12.37h-.78v-1.17c0-1.04-.35-1.93-1.06-2.66-.7-.73-1.58-1.12-2.62-1.17h-13.31v23.42h11.2c3.86,0,6.81-.86,8.85-2.58s3.73-4.28,5.09-7.68h.78l-4.54,12.69h-32.5v-.78h1.02Z"/>
        <path class="cls-1" d="M304.1,81.35h-5.01v46.68c0,1.36.48,2.52,1.45,3.49.97.97,2.15,1.45,3.56,1.45h.94l.08.78h-17.15v-.78h1.02c1.36,0,2.52-.47,3.48-1.41.97-.94,1.47-2.09,1.53-3.45v-43.47c-.05-1.36-.56-2.52-1.53-3.49-.97-.97-2.13-1.45-3.48-1.45h-1.02v-.78h21.15c4.75,0,8.48,1.32,11.2,3.96,2.71,2.64,4.07,6.06,4.07,10.26s-1.29,7.83-3.88,10.89-5.73,4.58-9.44,4.58c.78.37,1.71,1.08,2.78,2.15,1.07,1.07,2.02,2.18,2.86,3.33,4.49,6.42,7.41,10.38,8.77,11.87,1.36,1.49,2.32,2.51,2.9,3.05.57.55,1.2,1.08,1.88,1.61.68.52,1.36.94,2.04,1.25,1.51.73,3.13,1.1,4.86,1.1v.78h-4.31c-2.25,0-4.33-.4-6.27-1.21-1.93-.81-3.38-1.64-4.35-2.51-.97-.86-1.8-1.7-2.51-2.51-.71-.81-2.65-3.51-5.83-8.11-3.19-4.59-5.04-7.22-5.56-7.87-.52-.65-1.07-1.29-1.65-1.92-1.67-1.77-3.34-2.66-5.01-2.66v-.78c.42.05.97.08,1.65.08s1.51-.03,2.51-.08c6.47-.16,10.55-2.87,12.22-8.15.31-1.04.47-2.02.47-2.94v-1.76c-.11-3.5-1.02-6.32-2.74-8.46-1.72-2.14-4.05-3.29-6.97-3.45-1.25-.05-2.82-.08-4.7-.08Z"/>
      </g>
      <path class="cls-1" d="M213.64,40.45c-5.04-.96-9.37,3.38-8.42,8.42.53,2.81,2.8,5.09,5.61,5.62,5.04.96,9.39-3.39,8.43-8.43-.54-2.81-2.81-5.08-5.62-5.61ZM212.24,52.26c-2.64,0-4.8-2.16-4.8-4.8s2.16-4.8,4.8-4.8,4.8,2.16,4.8,4.8-2.16,4.8-4.8,4.8Z"/>
    </g>
  </g>
</svg>